# xmcd
#
# Track frame offsets:
# 150
# 14255
# 27685
# 42252
# 57017
# 69700
# 84103
# 98258
# 114203
# 127975
# 144123
# 157675
# 171370
# 183680
# 198670
# 208910
# 221758
# 240332
# 251975
#
# Disc length: 3582 seconds
#
#
# Revision: 0
# Processed by: cddbd v1.5.2PL0 Copyright (c) Steve Scherf et al.
# Submitted via: FreeRIP 2.96 
#
DISCID=020dfc13
DTITLE=Jimmie Davis - I Know Him
DYEAR=1900
DGENRE=Gospel
TTITLE0=I Know Him
TTITLE1=The Other Side Of The River
TTITLE2=Please Sing The Old Songs For Me
TTITLE3=No One To Welcome Me Home
TTITLE4=The Last Mountain
TTITLE5=The Saddest Goodbye
TTITLE6=Hang On To The Memories
TTITLE7=The Three Nails
TTITLE8=Two Glasses Of Buttermilk
TTITLE9=A Queen Without A Crown
TTITLE10=Let's All Shine For Jesus
TTITLE11=Long Long Journey
TTITLE12=To My Mansion In The Sky
TTITLE13=The Great Homecoming
TTITLE14=Souvenirs Of Yesterday
TTITLE15=Just A Closer Walk With Thee
TTITLE16=Holy
TTITLE17=Making Reservations
TTITLE18=The Last Of The Tumbling Tumbleweeds
EXTD=
EXTT0=
EXTT1=
EXTT2=
EXTT3=
EXTT4=
EXTT5=
EXTT6=
EXTT7=
EXTT8=
EXTT9=
EXTT10=
EXTT11=
EXTT12=
EXTT13=
EXTT14=
EXTT15=
EXTT16=
EXTT17=
EXTT18=
PLAYORDER=
